<svg width="32" height="32" xmlns="http://www.w3.org/2000/svg" class="nc-icon glyph">

 <g>
  <title>background</title>
  <rect fill="none" id="canvas_background" height="402" width="582" y="-1" x="-1"/>
 </g>
 <g>
  <title>Layer 1</title>
  <g id="svg_1">
   <path id="svg_2" d="m17.4,16l10.3,-10.3c0.4,-0.4 0.4,-1 0,-1.4s-1,-0.4 -1.4,0l-10.3,10.3l-10.3,-10.3c-0.4,-0.4 -1,-0.4 -1.4,0s-0.4,1 0,1.4l10.3,10.3l-10.3,10.3c-0.4,0.4 -0.4,1 0,1.4c0.2,0.2 0.4,0.3 0.7,0.3s0.5,-0.1 0.7,-0.3l10.3,-10.3l10.3,10.3c0.2,0.2 0.5,0.3 0.7,0.3s0.5,-0.1 0.7,-0.3c0.4,-0.4 0.4,-1 0,-1.4l-10.3,-10.3z" fill="#ffffff"/>
  </g>
 </g>
</svg>